<?xml version="1.0" encoding="utf-8"?>
<!-- Generator: Adobe Illustrator 20.1.0, SVG Export Plug-In . SVG Version: 6.00 Build 0)  -->
<svg version="1.1" id="Layer_1" xmlns="http://www.w3.org/2000/svg" xmlns:xlink="http://www.w3.org/1999/xlink" x="0px" y="0px"
	 viewBox="0 0 223.6 217" style="enable-background:new 0 0 223.6 217;" xml:space="preserve">
<style type="text/css">
	.st0{fill:#FFFFFF;}
</style>
<g>
	<circle cx="108.5" cy="108.5" r="108.5"/>
	<g>
		<path class="st0" d="M11.9,123.5c0-0.4,0.1-0.8,0-1.1C12.3,122.7,12.3,123.1,11.9,123.5z M12.5,112.7c0,0.4-0.1,0.7,0,1.1
			C12.3,113.3,12.3,113.3,12.5,112.7z M13,121.5c-0.2-0.6-0.3-1.1-0.4-1.6l0.1-0.5c0-0.1,0.2-0.3,0.2-0.4h0.3
			C13.3,119.9,13.2,120.7,13,121.5z M12.9,116L12.9,116l-0.1-0.1L12.9,116z M54.2,168.6c-0.7,0.5-1.4,1.1-2.1,1.6
			c-0.6,0.5-1.4,0.5-2.3,0.6c-0.6,0.1-1-0.1-1.5-0.2c-0.1,0-0.3-0.2-0.4-0.3c-1-0.1-1.8,0-2.7-0.6c-1.2-0.1-2.4-0.5-3.5-1.1
			c-0.3-0.2-0.5-0.2-0.8-0.2c0.2-0.3,0.3-0.4,0.3-0.5c0.3,0.2,0.4,0.3,0.7,0.3s0.4,0,0.7-0.1c-0.3-0.2-0.4-0.2-0.5-0.3l0.5-0.4
			l-2.3-1.9c-0.2-0.3-0.5-0.5-0.6-0.8c-0.4-1-1.1-1.6-1.7-2.4c-1.1-1.5-2.3-3-3.4-4.6c-1.3-1.8-2.3-4-2.8-6.2
			c-0.4-1.6-0.9-3-1.3-4.5c-0.7-2.4-1.1-4.9-1.4-7.3l-0.3-1.1c-0.4-1.3-0.6-2.5-0.7-3.8c-0.1-1.9,0-3.7-0.4-5.7V129
			c-0.8,1.2-1.5,2.6-1.8,3.8c-0.2,0.4-0.3,0.7-0.6,0.9c-0.1,0.5-0.2,0.9-0.4,1.3c-0.2,0.7-0.5,1.2-0.6,1.9c-0.2,0.5-0.4,0.9-0.7,1.4
			c-0.9,1.1-1.4,2.6-1.9,3.9c-0.2,0.8-0.6,1.6-1.5,2.1c-1-1.1-1.5-2.4-3-3.1c-0.3-1-1.5-1.5-2.1-2.6c-0.3-1.3-1-2.4-1.9-3.4
			c0-0.4,0.2-0.9,0.3-1.5c0,0-0.2-0.3-0.1-0.6c0.4-0.2,0.5,0.1,0.8,0.1c0,0,0.2-0.1,0.2-0.3c-0.3-0.9-0.9-1.6-0.8-2.6
			c0.1,0,0.4-0.1,0.7-0.2c-0.1-1.5-0.1-3-0.1-4.6c-0.2-0.6-0.4-1.1-0.7-1.6c-0.1-0.2-0.4-0.2-0.5-0.2c-0.4-1.1-0.4-1.3-0.3-2
			c0.5,0.1,0.4,0.6,0.6,0.9c0.5-0.4,0.6-2.7,0.4-4.8c0.2-0.3,0.2-0.5,0.4-0.8v-0.1l-0.6-1.3l0.2-1.5c0.2-0.9-0.1-2.1-0.1-3
			c0-0.1,0-0.1-0.1-0.2c0.2-0.7,0.4-1.2,0.5-1.7l0.2-1.9l0.1-1c0-0.3,0.3-0.5,0.2-0.9c-0.1-0.2,0.2-0.5,0.2-0.9
			c0-0.1-0.1-0.3-0.1-0.4c0,0-0.1-0.2,0-0.1c0.5-1.2,0.4-2.6,0.7-3.8c0.1-0.8,0.5-1.7,0.5-2.6c0.1-1,0.1-1.8,0.5-2.6l0.4-3.7
			c0-0.1-0.1-0.4-0.1-0.4c0.4-0.8,0.6-1.5,0.8-2.1l0.2-1.5l0.2-1.6c0.1-0.5,0.4-0.9,0.3-1.5c-0.1-0.2,0-0.3,0-0.4
			c0.1-0.5,0.2-0.9,0.3-1.5c0.1-0.5,0-1.2,0.2-1.8c0-0.3-0.1-0.7-0.2-0.8c0.4-1.2,0.5-2.3,0.9-3.3c0.3-1.1,0.2-2,0.5-3.3
			c-0.3,0.1-0.4,0.1-0.6,0.2c0.1-0.7,0.3-1.3,0.1-2.1c0.3-0.4,0.5-0.6,0.7-1c0-0.1-0.1-0.4-0.1-0.4c0.2-0.9,0.3-1.8,0.5-2.6l0.4-1.5
			c0.4-0.9,0.6-2,0.9-3.1c0.8-2.3,1.6-4.4,2.5-6.6c0.4-0.8,0.7-1.4,0.9-2.2c0.2-0.8,0.6-1.5,1.1-2.2l1.9-2.7l0.5-0.6l0.6-0.4
			c0.7-0.1,1.3-0.3,2-0.2c1.1-0.2,2.1-0.5,3-1.1c0.3-0.2,0.7-0.3,1.2-0.6c0.5,0.2,1.2,0.3,1.9,0.5c1.4,1.1,2.2,2.7,2.3,4.5
			c0.1,0.3,0.2,0.4,0.4,0.6c0.2,1.8,0.5,3.5,0.9,5.9c-0.1,0.7-0.2,2-0.5,3.3c0,0.4,0.3,0.7,0,1.1c-0.2,0.4-0.1,0.8-0.1,1.4L40,64.6
			l-0.3,2.7c-0.1,0.7-0.3,1.3-0.5,1.9c-0.3,0.7-0.3,1.3-0.6,2c-0.3,0.4-0.4,1.1-0.6,1.5c-0.4,0.8-0.6,1.6-0.9,2.4
			c-0.3,0.5-0.5,1-0.7,1.6l-1,1.8c-0.8,0.9-1.6,1.8-2.2,2.7c-0.2,0.3-0.3,0.4-0.5,0.5C32,82.2,31.4,83,31,83.9
			c0.2,0.6,0.2,1.1-0.2,1.8c-0.2,0.3-0.2,0.7-0.2,0.9c0.3,1.3,0,2.3-0.1,3.6c-0.2,2-0.3,4.1-0.5,6.1c0,0,0,0.1,0.1,0.3l0.9-1.1
			c1.3-1.9,3-3.4,4.4-5.2l0.9-0.7c1.8-1.6,3.8-3,5.6-4.5c1.1-0.9,2.2-1.3,3.5-0.9c0.4,0.5,0.9,0.8,1.4,1.4l0.9,1.6
			c-0.1,1.4-0.7,2.5-1.4,3.7c-0.6,0.9-1.3,1.7-1.8,2.6c-0.6,0.9-1.1,1.7-1.5,2.6c-0.3,0.5-0.7,1-1,1.4c-0.6,0.5-1.1,1.1-1.6,1.8
			L40,99.2l-0.2,0.1l-0.9,1.1c0,0.3-0.2,0.4-0.3,0.7c-1.8,1.7-3.3,3.7-4.9,5.7l-1,1.5l-0.9,1.1c-0.2,0.4-0.2,0.7-0.3,1.1
			c0.1,0.6,0.6,0.5,1.2,0.8l0.7,1.3c0.2-0.1,0.3-0.1,0.4-0.1c0.1,0.2,0.1,0.4,0.2,0.6l0.9,0.5c0.5,0.7,0.4,1.6,0.6,2.3
			c0.2,0.6,0.1,1.3,0.3,2c0.4,0.6,0.3,1.4,0.3,2.1c0.1,0.6,0.4,1.3,0.5,2s0.1,1.4,0.3,2.1l0.3,0.7c-0.1,1.2,0,2.5,0.3,3.6
			c0.1,0.6,0,1.1,0.1,1.7c0.1,0.6,0.3,1.1,0.2,1.8c0.1,0.6-0.1,1.1-0.2,1.6c0,0.3,0.1,0.4,0.1,0.7l0.5,0.1c0,0.1-0.2,0.4-0.2,0.7
			v0.3c0.2,0.7,0.7,1.4,0.7,2.1c-0.1,0.7-0.1,1.4-0.1,2.1c0.1,0.6-0.1,1.2-0.1,1.8c0.1,0.6,0.3,1.1,0.4,1.6
			c-0.2,0.3-0.2,0.4-0.2,0.5c0.3-0.1,0.6-0.1,0.8-0.1c0.1,0.2,0.3,0.2,0.2,0.3c0,1,0.2,2,0.4,2.8c0.1,0.4,0,1,0,1.2
			c0.2,0.3,0.4,0.5,0.6,0.6l-0.2,2c0,0.4,0.1,0.7,0.2,1.1c-0.1,0-0.3,0-0.2,0.1l0.2-0.1c0.1,0,0.3,0.2,0.2,0.3
			c0.1,0.4,0.1,0.8,0,1.2c0.3-0.1,0.6-0.1,0.8-0.1c0.1,0.3-0.2,0.5-0.2,0.8c0.6,0.8,0.3,2,1,2.7c0.3,0,0.4,0.2,0.5,0.2
			c0.3-0.4,0.2-0.8,0.4-1.2c0.1,0.2,0.2,0.3,0.2,0.4l-0.2,1.5c0.2,0.7,0.1,1.5,0.6,2.1h0.4c0.1,0.3,0.1,0.3,0.4,0.5
			c0.2,0.3,0.4,0.6,0.6,1l-0.5-0.1v0.1c0.1,0.2,0.4,0.2,0.5,0.2v-0.3c0.1,0,0.4,0,0.5,0.2c0.6,0.6,1.3,1.1,1.9,1.6
			c1,0.7,2.2,1.2,3.4,1.7c0,0.1,0,0.3-0.2,0.4l-1-0.1c0.4,0.5,0.5,0.5,1,0.1c0.7,0.2,1.3-0.1,1.8-0.1c0,0.1,0.1,0.3,0.1,0.6
			c-0.4,0-0.7,0.1-1.1,0c0.1,0.6,0.7,0.2,0.7,0.8c0,0.3-0.2,0.5-0.4,0.8l0.4,0.5c0.4,0,0.8,0.2,1.2,0.3
			C54.1,167.9,54.1,168.2,54.2,168.6z M13,110.7l0.4,0.5c0,0.4,0.1,0.8-0.5,0.9C12.8,111.6,12.8,111.6,13,110.7z M13.6,128.9
			l-0.1,0.5C13.3,129.2,13.3,129,13.6,128.9z M13.5,111.3l-0.1-0.2C13.5,111.1,13.5,111.3,13.5,111.3z M30,103.9h-0.1
			c0,0.1,0.1,0.2,0.1,0.2V103.9z M31.2,103.1l-0.4-0.5c-0.6,0.2-0.6,0.8-0.7,1.2l0.5,0.1L31.2,103.1z M33.3,99.6
			c0.8-1.3,1.5-2.7,2.4-4l0.1-0.5c-0.1,0-0.1,0-0.3,0.1c-1.1,1.1-1.9,2.6-2.7,3.8c-0.6,0.9-1,1.8-1.7,2.7c-0.2,0.1-0.4,0.2-0.2,0.5
			h0.3C31.8,101.3,32.7,100.5,33.3,99.6z M31.1,79c0,0.1,0.2,0.4,0.3,0.7l0.8-1.2c1-1.3,1.7-2.9,2.3-4.4c0.4-1.5,1.1-2.9,1.3-4.5
			c0.7-1.4,0.5-3,1-4.4c0.3-1.9,0.4-3.7,0.2-5.6c-0.1-1.9-0.4-3.9-0.9-5.9c-0.2-1-0.3-2-0.9-2.9c0-0.1-0.1-0.3-0.2-0.4
			c-0.4-0.2-0.8-0.1-1.1,0.4c-0.2,0.4-0.4,1.1-0.7,1.7c-0.2,0.3-0.3,0.7-0.2,0.9c0.3,1-0.1,2.1-0.1,3.2c-0.1,0.7-0.3,1.2-0.5,1.9
			c0.1,0.8,0.1,1.8,0.3,2.6c0.2,1,0.1,2.1,0.1,3.2l-0.2,1.9c-0.1,0.7-0.3,1.2-0.3,1.9c-0.2,0.5,0,1.2-0.2,1.9s-0.4,1.2-0.2,1.9
			c0.1,0.4,0,1,0,1.5c-0.2,0.5,0,1.1,0,1.5C31.1,76.2,31.4,77.6,31.1,79z M34.9,159.8L35,160h-0.1V159.8z M35.5,161.1
			c0,0-0.1,0-0.1-0.2C35.6,161,35.6,161,35.5,161.1z M35.7,161.3L35.7,161.3l-0.1-0.1C35.7,161.1,35.7,161.3,35.7,161.3z
			 M35.7,161.3L35.7,161.3C35.7,161.4,35.7,161.4,35.7,161.3z M35.9,94.9C35.9,94.9,36,94.9,35.9,94.9L35.9,94.9z M37,133.7
			c-0.3-1.5-0.4-2.9-0.8-4.6c-0.1,1.1-0.3,1.9-0.3,2.6c0.2,1.1,0,2.2,0.1,3.2c0,0.1,0.1,0.3,0.2,0.3C36.5,134.6,36.9,134.1,37,133.7
			z M36.3,135.3l-0.1,0.5C36.6,135.6,36.6,135.3,36.3,135.3z M39.2,145.5c-0.2-0.7-0.5-1.4-0.5-2.3h-0.3l0.1-0.7
			c-0.4-1.3-0.4-2.7-0.7-3.9c-0.1-0.6-0.3-1.1-0.4-1.7c-0.1-0.3-0.1-0.7,0-1.1c0,0-0.1,0-0.3-0.2L37,135c0,0.1-0.3,0.4,0.1,0.6
			c0,0.1-0.2,0.3-0.2,0.4c-0.1,0.5,0,1.2,0.1,1.8l-0.3,0.2c0,0.3,0.1,0.6,0.2,0.8l0.4,0.3c0,0.1-0.2,0.3-0.2,0.3
			c0.5,0.6,0.7,1.2,0.2,1.8l0.4,0.3c0,0.4-0.2,0.7-0.2,0.9c0.3,0.2,0.4,0.5,0.5,0.6c0,0.1-0.2,0.1-0.2,0.1c0,0.1,0.1,0.2,0.1,0.2
			l0.3,1.1c-0.1,0-0.3,0.1-0.3,0.1s0.1,0.2,0.3,0.2l-0.1,1c0.2,0.3,0.5,0.6,0.7,0.8C39.3,146.2,39.2,145.9,39.2,145.5z M38.5,143.2
			c-0.2,0.1-0.3,0.2-0.4,0.2v-0.3L38.5,143.2z M38.4,144.9v-0.3C38.5,144.8,38.5,144.8,38.4,144.9z M39.1,165.6
			c-0.1,0-0.3,0-0.4-0.3C39,165.3,39.1,165.3,39.1,165.6z M39.2,165.6l0.1,0.2C39.2,165.9,39.2,165.8,39.2,165.6z M39.4,149.4
			c0.1,0,0.3-0.1,0.4-0.1l-0.2-1.7C39.4,148.2,39.2,148.8,39.4,149.4z M39.7,167.3l0.1,0.2c-0.1,0-0.2,0.1-0.3,0.1
			c0,0,0-0.1-0.1-0.2C39.6,167.5,39.7,167.5,39.7,167.3z M40.1,150.8c0-0.3,0.1-0.7-0.2-1c0,0-0.2,0.1-0.4,0.1
			C39.6,150.4,39.7,150.7,40.1,150.8l-0.1,0.5c0,0.3,0.1,0.4,0.2,0.4C40.3,151.6,40.4,151.2,40.1,150.8z M40.5,152.1
			c0-0.1-0.1-0.2-0.1-0.2C40.3,152.1,40.2,152.2,40.5,152.1z M41.3,167.9h-1l0.1-0.7C41,167.3,41,167.3,41.3,167.9z M40.8,153.3
			c0-0.1,0-0.4-0.1-0.7C40.5,153,40.4,153.1,40.8,153.3z M41,153.4h-0.3C40.9,153.4,40.7,153.7,41,153.4z M41.1,144.9
			c0.2,0.6,0.3,1-0.2,1.8C41,145.8,40.9,145.4,41.1,144.9z M43.2,152.8v0.3c-0.1,0-0.3,0-0.4-0.2c-0.2-0.6-0.7-1.2-0.2-2.1
			L43.2,152.8z M43.4,153.5c0.1,0.4,0.1,0.8,0,1.4c-0.1-0.2-0.1-0.2-0.3-0.2l0.2-1.5C43.2,153.4,43.4,153.4,43.4,153.5z M43.3,153.2
			L43.3,153.2l-0.1-0.1C43.1,153.2,43.1,153.2,43.3,153.2z M43.6,155.2c-0.1,0-0.3-0.2-0.2-0.3C43.5,154.9,43.6,155.1,43.6,155.2z
			 M43.7,155.2v0.1h-0.1L43.7,155.2L43.7,155.2z M45.2,159.5h-0.3c0-0.1,0.2-0.1,0.2-0.3C45.1,159.4,45.2,159.4,45.2,159.5z
			 M45.2,159.8v-0.3c0.1,0.2,0.1,0.2,0.3,0.2C45.3,159.7,45.3,159.8,45.2,159.8z M46.8,162.4h-0.3c0-0.3,0-0.4-0.2-0.4
			c0-0.4-0.4-0.6-0.6-0.6c0.1,0.6,0.1,0.6,0.6,0.6c0,0.3,0.1,0.4,0.2,0.4s0.1,0.2,0.1,0.2C46.8,162.6,46.8,162.6,46.8,162.4z
			 M47.7,171.2l-0.8-0.1C47.2,170.9,47.2,170.9,47.7,171.2z M47.4,163.5c0-0.1,0-0.3-0.1-0.2C47.4,163.3,47.4,163.3,47.4,163.5z
			 M48.5,163.6l-1-0.1C47.8,163.9,47.8,163.9,48.5,163.6z M50.3,164.5c0,0.1-0.2,0.1-0.2,0.1c0,0.1,0.1,0.2,0.1,0.2L50.3,164.5z
			 M52.2,166.4c0,0,0-0.1-0.1-0.2L52.2,166.4c-0.1-0.1-0.1,0,0,0.1V166.4z"/>
		<path class="st0" d="M96.7,106.4l0.6-0.5c0,0,1.1,0,1.2,0.5l0.2,1.5l-0.9,1.8c-0.3,0.5-0.7,0.8-1,1.3s-0.9,1.6-1.1,2.2
			c-0.1,0.5-4.4,5.6-4.7,6.2c-0.3,0.5-0.6,1-0.9,1.7c-0.8,0.5-1.5,1.2-2.1,2c-0.7,0.9-1.5,1.7-2.4,2.5c-0.4,0.5-0.8,0.9-1,1.5
			c-0.3,0.4-0.5,0.8-1,1.2c-1.6,1.3-3.2,2.4-4.9,3.7h0.1c-1.3,0.9-1.8,1.9-2.6,2.7c-0.6,0.5-1.2,1.1-1.9,1.3l-0.4,0.3
			c-0.8,0.2-1.4,0.3-2,0.4c-0.1,0-0.2,0-0.4-0.2c0,0.1-0.1,0.1-0.2,0.1c-0.5,0.2-0.9,0.5-1.5,0.5c-1.5,0.5-3.1,0.7-4.7,0.4
			c-0.3,0-0.8,0-1.3,0c-0.1,0-0.3-0.1-0.6-0.2c-1-0.2-1.9-0.4-3-0.8c-2.2-0.6-3.9-1.6-5.3-3c-0.6-0.4-1.2-0.8-1.9-1.3
			c-0.2-0.2-0.4-0.5-0.6-0.8c-0.3-0.4-0.6-0.7-1.1-1.4c-0.1-0.7-0.5-1.6-0.7-2.6c-0.2-1.1-0.5-2.2-0.8-3.3c-0.4-1.8-0.5-3.5-0.7-5.3
			c-0.1-0.9-0.1-1.8,0-2.8c0.1-0.9,0.1-1.9,0.3-2.7c0.2-0.4,0.1-0.9,0.1-1.4c0.1,0.1,0.2,0.1,0.5,0.3c0.3-0.5,0.7-0.9,1-1.4
			c0.3-0.6,0.1-1.4,0.8-1.9c-0.3-1,0.6-1.6,0.7-2.5c0-0.2,0.2-0.4,0.3-0.6c0.8-1.1,1.6-2.3,2.7-3.1c0.6-0.5,1.1-1.2,1.7-1.8
			c0.1-0.2,0.3-0.5,0.5-0.6c0.6-0.3,0.7-0.8,0.9-1.3c0.7,0.1,1.3,0,1.9-0.4s1.3-0.5,1.9-0.6c1.4-0.4,2.7-0.4,4-0.6h0.4l0.1-0.1
			l1-0.4c2.3,0.2,4.7,0.6,7.2,0.9c1.2,0.9,2.8,1.1,4.1,2.1c0.3,1,0.8,2.2,1.2,3.2c0,0.7,0.1,1.3,0,2c0,1.3-0.2,2.7-0.4,4
			c-0.1,0.5-0.3,1-0.6,1.4c-0.5,0.9-1.1,1.9-1.5,2.7c-0.8,0.7-1.7,1.2-2.7,1.4c-0.9,0.1-1.8,0.3-2.7,0.2c-0.7-0.1-1.4-0.3-2.2-0.1
			c-0.3,0.1-0.8-0.1-1.2-0.1c-1.4-0.1-2.8-0.3-4.3-0.1c-0.3,0.4-0.3,1-0.4,1.5c0,0.8-0.2,1.5-0.6,2.3c-0.4,0.6-0.6,1.4-0.7,2.4
			c0.1,0.1,0.2,0.4,0.3,0.7c0,0.2-0.2,0.5-0.3,0.9c0.1,0.8-0.1,1.8,0.3,2.6c0.4,1,0.5,2.2,1.1,3.3c0.1,0.1,0.1,0.3,0.2,0.6
			c0.5,0.2,1,0.3,1.6,0.6c2.8-0.6,5.6-1.1,8.4-2.1c0.9-0.3,1.7-0.7,2.6-1.2c2.3-1.4,4.5-2.6,6.4-4.3c1.3-1.2,2.7-2.3,3.9-3.6
			c0.4-0.4,0.7-0.8,1.1-1.1c1.1-1,2.1-2,2.9-3.1c0.4-0.6,0.8-1.1,1.3-1.6c1.1-1.3,2-2.9,3-4.2v-0.1c0.1-0.1,0.3-0.7,0.3-0.7
			L96.7,106.4z M68.6,105.5c-0.7,1-1.1,2.3-1.8,3.5c-0.2,0.2-0.3,0.5,0.1,0.9c1.8-0.1,3.4-0.9,5.1-1.8c1.7-1,2.6-2.6,3.3-4.2
			c0.1-0.8,0-1.4,0-2c0-0.2-0.1-0.3-0.1-0.4l-0.9-0.4c-1.8,0.1-2.9,1.2-4,2C69.6,104,69.2,104.8,68.6,105.5z"/>
		<path class="st0" d="M118.4,120.2c-0.7,1.7-1.5,3-2.6,4.6c-0.4,0.5-0.3,1.2-0.6,1.8c-0.7,1.1-1.1,2.3-1.7,3.5l-0.8,1.7
			c-0.2,0.8-0.7,1.4-1.1,2c-0.9,1.7-1.8,3.2-2.7,4.8c-0.5,0.6-1,1.2-1.4,2c0,0.3-0.5,0.5-0.7,0.7c-0.3,0.6-1,0.8-1.2,1.3
			c-0.4,0.4-0.7,0.8-1.2,1.2c-1.6,1.4-3.3,2.8-5.4,3.2c-1.6,0.4-3,0.2-4.4-0.5c-1.1-0.4-2.1-1-2.8-1.8c-0.3-0.3-0.7-0.5-1.1-0.9
			c-0.6-0.8-1.2-1.9-1.8-2.8c0-0.7,0.1-1.1,0.4-1.6s0.3-1.1,0.2-1.6c-0.2-0.6,0.1-1.2,0.1-1.8c-0.2-0.6,0-1.1,0-1.8l-0.2-1
			c0.3-0.5,0.3-1.1,0.3-1.6c-0.1-1.1,0-1.1,0.4-2.3c0-0.7,0-1.3,0.1-2c0.3-1.4,0.4-2.8,0.2-4.3c-0.1-0.4,0-1,0.1-1.5l0.5-0.6
			c0.2-0.8,0.3-1.6,0.5-2.5c0.2-0.8,0.1-1.7,0.6-2.4v-0.4c0.2-1.5,0.9-2.9,1.1-4.4c0.4-0.7,0.5-1.6,0.7-2.4c0.1-0.7,0.5-1.3,0.5-2
			c0.2-0.6,0.3-1.4,0.7-2c0.1-0.2,0-0.4,0.2-0.8c0.1-0.5,0.1-1.2,0.3-1.7c0.2-0.6,0.3-1.2,0.4-1.7s0.3-1,0.5-1.5
			c0.4-0.8,0.8-1.7,1.1-2.7c0.1-0.8,0.4-1.5,0.7-2.4l0.9-2.6l0.9-2c0.3-0.6,0.2-1.3,0.1-2.1c0.8-1,0.9-2.3,1.5-3.4
			c0.6-1.4,1.2-2.8,2-4c0.7-1.1,1.1-2.4,1.5-3.7l-0.2-0.6c0-0.2,0.2-0.4,0.3-0.6c0.3-1.7,1.3-3.1,2.5-4.4c0.2-0.2,0.4-0.3,0.5-0.5
			c0.5-0.5,1-1.2,1.5-1.8c0.5-0.9,1.3-1.7,2-2.7c0.3-0.4,0.6-0.7,1-1.2c0.8-0.2,1.7-0.5,2.5-0.8c0.9-0.3,1.9-0.1,2.6-0.7
			c0.9,0.1,1.7,0.1,2.5,0c0.2,0.4,0.5,0.7,0.7,0.8c0.1,0.9,0.3,1.5,0.4,2.3l-0.1,0.7c0.3,0.7,0.4,1.4,0.3,2.2c0,0.7,0.1,1.3-0.1,2.1
			c-0.2,0.8-0.2,1.5-0.4,2.2c-0.3,0.9-0.4,1.7-0.6,2.6c0,0.2,0.1,0.4,0,0.7c-0.2,0.5-0.3,1-0.6,1.5c0.1,0.1,0.1,0.2,0.1,0.4
			c-0.3,0.4-0.4,1-0.7,1.5c0,0.4,0,0.9,0,1.3c-0.3,0.9-0.7,1.7-0.9,2.6c-0.2,0.5-0.3,1.1-0.6,1.4c-0.7,0.7-0.9,1.6-1.2,2.4
			c-0.2,0.4-0.3,0.7-0.6,1c-0.5,0.8-1,1.5-1.5,2.3l-1,1.2l-0.5,0.6c-0.8,1.6-2.4,2.6-3.6,3.8c-0.2,0.2-0.5,0.3-0.6,0.5
			c-0.5,0.5-1.1,0.9-1.8,1.1c-0.3,0.4-0.4,0.8-0.5,1.3c-0.4,2.2-0.8,4.2-1.1,6.4c-0.2,0.5-0.1,1.2-0.5,1.7c-0.1,0.2-0.2,0.5-0.2,0.9
			c-0.4,2.7-0.8,5.3-1.3,8c0,0.3-0.2,0.8,0,1.2c0.1,0.2,0.1,0.4-0.1,0.8c0,0.3-0.2,0.5-0.1,1c0,0.3-0.2,0.6-0.2,1.1
			c0.1,0.6,0.1,1.3-0.1,1.9s-0.2,1.2-0.4,1.7l0.1,1.8c0.1,0.4,0,1,0.1,1.4c0.1,0.6-0.2,1.1-0.1,1.7c0.1,0.3-0.1,0.8,0.1,1.2
			c0.1,0.2,0.1,0.6,0,0.9c-0.1,0.7,0.1,1.2,0.2,1.9l0.4,2.6c0.2,0.6,0.5,1.2,0.8,1.6c0.4,0,0.7,0,0.8-0.2c0.3-0.4,0.6-0.7,1-0.9
			c0.7-0.5,1.2-1.1,1.6-1.8l2.7-4c1.3-1.9,2.4-3.8,3.5-5.8c0.7-1.4,0.9-2.4,1.5-4.2c0.2-0.5,0.4-1.1,0.7-1.6c0.3-0.3,0.9-1.6,1-1.9
			c0.2-1.2,0.6-1.3,0.8-2.5c0.1-0.9,0.3-1.1,0.8-1.9c0.3-0.3,0.8-1.1,0.5-1.6c0.1-0.2,0.5-1.4,1-1.4c0.4-0.2,1.2,0,1.8,0.3
			c0.1,0.3,1,1.3,0.8,1.4c-0.2,1.2-0.9,1.6-1.2,2.8C121.6,116,118.6,118,118.4,120.2z M107.1,95.7c2.5-2.3,4.3-4.8,5.8-7.6
			c0.4-0.7,0.8-1.5,1.3-2.1l0.4-0.8c0.2-0.6,0.5-1.3,0.7-1.8c0.6-1.2,1-2.4,1.4-3.7c0.4-1.4,0.8-2.8,1-4.3c0.1-0.8,0.2-1.5,0.4-2.2
			c0.3-0.6,0.5-1.3,0.4-1.9c0-1.1,0.2-2.2,0.3-3.3l0.1-0.8l-0.1-1.8c-0.2-0.4-0.3-0.7-0.8-0.7c-0.1,0-0.2,0.1-0.4,0.2
			c-0.3,0.4-0.8,0.9-0.9,1.5c-0.5,1.3-1.1,2.4-1.6,3.7l-0.9,1.9c-0.3,0.4-0.5,0.8-0.7,1.3c-0.3,0.5-0.4,1.1-0.7,1.6
			c-0.6,1.3-1.1,2.7-1.3,4c-0.2,1.2-0.8,2.3-1,3.5c0,0.1,0,0.3-0.2,0.4c-0.3,1.1-0.8,2-0.9,3.1c-0.1,0.9-0.4,1.7-0.6,2.5
			c-0.1,0.2-0.3,0.4-0.3,0.6c-0.2,1.2-0.7,2.4-0.9,3.7c0,0.2-0.2,0.5-0.3,0.9c0,0.2-0.2,0.4-0.2,0.6C107.3,94.6,107,95,107.1,95.7z"
			/>
		<path class="st0" d="M144,120.2c-0.7,1.7-1.5,3-2.6,4.6c-0.4,0.5-0.3,1.2-0.6,1.8c-0.7,1.1-1.1,2.3-1.7,3.5l-0.8,1.7
			c-0.2,0.8-0.7,1.4-1.1,2c-0.9,1.7-1.8,3.2-2.7,4.8c-0.5,0.6-1,1.2-1.4,2c0,0.3-0.5,0.5-0.7,0.7c-0.3,0.6-1,0.8-1.2,1.3
			c-0.4,0.4-0.7,0.8-1.2,1.2c-1.6,1.4-3.3,2.8-5.4,3.2c-1.6,0.4-3,0.2-4.4-0.5c-1.1-0.4-2.1-1-2.8-1.8c-0.3-0.3-0.7-0.5-1.1-0.9
			c-0.6-0.8-1.2-1.9-1.8-2.8c0-0.7,0.1-1.1,0.4-1.6s0.3-1.1,0.2-1.6c-0.2-0.6,0.1-1.2,0.1-1.8c-0.2-0.6,0-1.1,0-1.8l-0.2-1
			c0.3-0.5,0.3-1.1,0.3-1.6c-0.1-1.1,0-1.1,0.4-2.3c0-0.7,0-1.3,0.1-2c0.3-1.4,0.4-2.8,0.2-4.3c-0.1-0.4,0-1,0.1-1.5l0.5-0.6
			c0.2-0.8,0.3-1.6,0.5-2.5c0.2-0.8,0.1-1.7,0.6-2.4v-0.4c0.2-1.5,0.9-2.9,1.1-4.4c0.4-0.7,0.5-1.6,0.7-2.4c0.1-0.7,0.5-1.3,0.5-2
			c0.2-0.6,0.3-1.4,0.7-2c0.1-0.2,0-0.4,0.2-0.8c0.1-0.5,0.1-1.2,0.3-1.7c0.2-0.6,0.3-1.2,0.4-1.7s0.3-1,0.5-1.5
			c0.4-0.8,0.8-1.7,1.1-2.7c0.1-0.8,0.4-1.5,0.7-2.4l0.9-2.6l0.9-2c0.3-0.6,0.2-1.3,0.1-2.1c0.8-1,0.9-2.3,1.5-3.4
			c0.6-1.4,1.2-2.8,2-4c0.7-1.1,1.1-2.4,1.5-3.7l-0.2-0.6c0-0.2,0.2-0.4,0.3-0.6c0.3-1.7,1.3-3.1,2.5-4.4c0.2-0.2,0.4-0.3,0.5-0.5
			c0.5-0.5,1-1.2,1.5-1.8c0.5-0.9,1.3-1.7,2-2.7c0.3-0.4,0.6-0.7,1-1.2c0.8-0.2,1.7-0.5,2.5-0.8c0.9-0.3,1.9-0.1,2.6-0.7
			c0.9,0.1,1.7,0.1,2.5,0c0.2,0.4,0.5,0.7,0.7,0.8c0.1,0.9,0.3,1.5,0.4,2.3l-0.1,0.7c0.3,0.7,0.4,1.4,0.3,2.2c0,0.7,0.1,1.3-0.1,2.1
			c-0.2,0.8-0.2,1.5-0.4,2.2c-0.3,0.9-0.4,1.7-0.6,2.6c0,0.2,0.1,0.4,0,0.7c-0.2,0.5-0.3,1-0.6,1.5c0.1,0.1,0.1,0.2,0.1,0.4
			c-0.3,0.4-0.4,1-0.7,1.5c0,0.4,0,0.9,0,1.3c-0.3,0.9-0.7,1.7-0.9,2.6c-0.2,0.5-0.3,1.1-0.6,1.4c-0.7,0.7-0.9,1.6-1.2,2.4
			c-0.2,0.4-0.3,0.7-0.6,1c-0.5,0.8-1,1.5-1.5,2.3l-1,1.2l-0.5,0.6c-0.8,1.6-2.4,2.6-3.6,3.8c-0.2,0.2-0.5,0.3-0.6,0.5
			c-0.5,0.5-1.1,0.9-1.8,1.1c-0.3,0.4-0.4,0.8-0.5,1.3c-0.4,2.2-0.8,4.2-1.1,6.4c-0.2,0.5-0.1,1.2-0.5,1.7c-0.1,0.2-0.2,0.5-0.2,0.9
			c-0.4,2.7-0.8,5.3-1.3,8c0,0.3-0.2,0.8,0,1.2c0.1,0.2,0.1,0.4-0.1,0.8c0,0.3-0.2,0.5-0.1,1c0,0.3-0.2,0.6-0.2,1.1
			c0.1,0.6,0.1,1.3-0.1,1.9c-0.2,0.6-0.2,1.2-0.4,1.7l0.1,1.8c0.1,0.4,0,1,0.1,1.4c0.1,0.6-0.2,1.1-0.1,1.7c0.1,0.3-0.1,0.8,0.1,1.2
			c0.1,0.2,0.1,0.6,0,0.9c-0.1,0.7,0.1,1.2,0.2,1.9l0.4,2.6c0.2,0.6,0.5,1.2,0.8,1.6c0.4,0,0.7,0,0.8-0.2c0.3-0.4,0.6-0.7,1-0.9
			c0.7-0.5,1.2-1.1,1.6-1.8l2.7-4c1.3-1.9,2.4-3.8,3.5-5.8c0.7-1.4,0.9-2.4,1.5-4.2c0.2-0.5,0.4-1.1,0.7-1.6c0.3-0.3,0.9-1.6,1-1.9
			c0.2-1.2,0.6-1.3,0.8-2.5c0.1-0.9,0.3-1.1,0.8-1.9c0.3-0.3,0.8-1.1,0.5-1.6c0.1-0.2,0.5-1.4,1-1.4c0.4-0.2,1.2,0,1.8,0.3
			c0.1,0.3,1,1.3,0.8,1.4c-0.2,1.2-0.9,1.6-1.2,2.8C147.2,116,144.2,118,144,120.2z M132.7,95.7c2.5-2.3,4.3-4.8,5.8-7.6
			c0.4-0.7,0.8-1.5,1.3-2.1l0.4-0.8c0.2-0.6,0.5-1.3,0.7-1.8c0.6-1.2,1-2.4,1.4-3.7c0.4-1.4,0.8-2.8,1-4.3c0.1-0.8,0.2-1.5,0.4-2.2
			c0.3-0.6,0.5-1.3,0.4-1.9c0-1.1,0.2-2.2,0.3-3.3l0.1-0.8l-0.1-1.8c-0.2-0.4-0.3-0.7-0.8-0.7c-0.1,0-0.2,0.1-0.4,0.2
			c-0.3,0.4-0.8,0.9-0.9,1.5c-0.5,1.3-1.1,2.4-1.6,3.7l-0.9,1.9c-0.3,0.4-0.5,0.8-0.7,1.3c-0.3,0.5-0.4,1.1-0.7,1.6
			c-0.6,1.3-1.1,2.7-1.3,4c-0.2,1.2-0.8,2.3-1,3.5c0,0.1,0,0.3-0.2,0.4c-0.3,1.1-0.8,2-0.9,3.1c-0.1,0.9-0.4,1.7-0.6,2.5
			c-0.1,0.2-0.3,0.4-0.3,0.6c-0.2,1.2-0.7,2.4-0.9,3.7c0,0.2-0.2,0.5-0.3,0.9c0,0.2-0.2,0.4-0.2,0.6C132.8,94.6,132.6,95,132.7,95.7
			z"/>
		<path class="st0" d="M173.7,103.3c-0.3,0.5-0.6,1.2-1,1.8c-0.2,0.8-0.2,1.6-0.6,2.4c-0.2,1.5-0.6,2.9-1.1,4.3
			c-0.3,0.9-0.4,1.8-0.7,2.8l-0.9,2.2c-0.1,0.2-0.2,0.5-0.2,0.8c-0.1,0.7-0.2,1.3-0.6,1.8c-0.4,0.7-0.6,1.4-0.8,2.1
			c-0.1,0.5,0,1-0.3,1.4c-0.2,0.4,0.1,0.9-0.2,1.3c-0.1,0.3-0.1,0.9-0.2,1.3c0,0.1,0,0.3-0.2,0.4c-0.3,0.9-0.6,1.6-0.7,2.5
			c0,0.2,0,0.4-0.2,0.6c-0.2,0.9-0.4,1.8-0.8,2.7c-0.6,1.2-0.8,2.3-1.3,3.5l-0.5,1.2c-0.3,0.9-0.6,1.7-0.8,2.6c0,0.4,0,0.9,0.1,1.2
			c-0.2,0.5-0.3,1-0.4,1.4l0.1,0.1v0.1c-0.2,0.4,0.1,1,0,1.4c-0.4,0.5-0.3,1.2-0.4,1.8c0.2,0.4,0.2,0.9,0.4,1.4
			c-0.1,0.9-0.1,1.8-0.5,2.5c0.1,0.6,0.1,1.2,0.2,2c0.3-0.9,0.5-1.5,0.8-2.1c0.2,0,0.3,0.3,0.4,0.5l0.3,0.9c0,0.3-0.2,0.9-0.1,1.3
			c0,0.1,0.1,0.2,0.2,0.4c0,0.1,0.1,0.2,0.1,0.3l-0.2,1.1c0,0.4,0.1,0.8,0.1,1.1s-0.1,0.5,0,0.9c-0.1,0.8-0.3,1.4,0,2.1
			c0.1,0.4-0.1,1-0.2,1.6l-0.8,0.9h-0.3c-0.4,0.2-0.2,0.5-0.3,1c-0.6,0.2-1.2,0.4-1.3,1.2c-1.2-0.1-2.1,0.2-3,0.8
			c-0.6,0.2-1.1,0.1-1.6,0.2c-0.5,0.2-1,0-1.6,0.1l-0.5,0.4c-0.3,0-0.6-0.2-1-0.1c-0.5-0.2-0.9-0.5-1.3-1c0.3-0.4,0.7-0.4,1.1-0.6
			c-0.1-0.3-0.3-0.5-0.6-0.5c-0.3-0.1-0.8-0.1-0.8-0.6c0.1,0,0.2-0.1,0.4-0.2c-0.3-0.7-0.7-1.3-0.8-2.1c0.2-0.1,0.3-0.1,0.5-0.2
			l-0.2-1.3c-0.1,0-0.2-0.1-0.3-0.3c-0.2-0.2-0.1-0.3,0.2-0.4l0.7,0.8c0.2-0.2,0.3-0.4,0.2-0.6l-0.4-1c0-0.3,0.2-0.8,0.2-1.2
			l-0.3-0.3c0.1-0.1,0.2-0.2,0.5-0.3c0-0.3,0.2-0.8,0.2-1.3l0.4,0.5c0.3-0.5,0.2-1,0.3-1.5l-0.3-0.6l-0.1-0.1
			c-0.1-0.8-0.1-1.4,0.4-2.1c-0.1-0.1-0.2-0.2-0.2-0.4c0.1-0.3,0.2-0.8,0.3-1.1c0.1-0.5-0.1-1.2,0.4-1.7c-0.1-0.3,0-0.7-0.1-1.2
			c0.1-0.2,0.3-0.6,0.3-1c-0.1-0.2-0.1-0.6-0.1-0.8c0.2,0,0.4,0,0.6,0.2c0.1-0.2,0.1-0.3,0.2-0.4l-0.6-0.4c0-0.1,0.1-0.3,0.2-0.5
			c0-0.1-0.1-0.2-0.2-0.5c0.2-0.1,0.4-0.3,0.5-0.6c-0.2-0.6,0.3-1.1,0.3-1.6c-0.1-0.2-0.2-0.4-0.2-0.6c0.1-0.3,0.3-0.7,0.3-1.2
			c-0.1-0.4,0.2-1,0.5-1.4c-0.1-0.2-0.2-0.4-0.3-0.7c0.3-1.2,0.1-2.6,0.7-3.8c-0.3-0.4-0.5-0.1-0.8-0.2c-0.2-0.5,0.4-0.5,0.4-0.8
			c-0.1-0.6,0-1.2,0-1.8c-0.3-0.1-0.4,0.2-0.6,0.3c-0.2,0.1-0.5,0.3-0.8,0.4c-0.2,0.2-0.5,0.2-0.7,0.3c-0.4,0.3-0.7,0.7-1.1,1.1
			l-1-0.4l-0.8,0.2c-0.2,0.2-0.5,0.5-0.6,0.7c-0.4,0.1-0.4-0.3-0.6-0.5c-1.1,0.2-2.2,0-3.3-0.1c0-0.1,0-0.2-0.1-0.3
			c-0.1,0.1-0.1,0.2-0.1,0.3c-0.6-0.2-1.3-0.4-2-0.3c-0.2,0.1-0.5-0.1-0.9-0.2c-0.3-0.1-0.6-0.2-1-0.3c-0.5-0.6-1-1.2-1.4-1.8
			c0.1-0.3,0.3-0.6,0.6-1l-0.5-0.1c0.1-1-0.5-1.8-0.2-2.9c-0.1-0.2-0.1-0.4-0.2-0.9c0.5-0.8,0.1-1.9,0-3c0,0,0.1-0.2,0.2-0.4
			c0-0.8-0.1-1.4,0-2.2c0-0.3-0.3-0.7,0-1s0-0.7,0.1-1.1c0.3-0.4,0.2-0.9,0.1-1.3c-0.1-0.4,0.2-0.9-0.1-1.3c0.1-0.3,0.3-0.5,0.4-0.9
			l0.1-1.4c0.5-0.4-0.1-1,0.3-1.5c0.3-0.4,0.4-1,0.4-1.5c-0.1-0.3-0.3-0.7-0.3-1l0.5-1.8c-0.1-0.3-0.1-0.9,0.1-1.4
			c0.1-0.3,0.1-0.7,0.2-1.1c0-0.4-0.1-1,0.2-1.5c0.1-0.2-0.3-0.6,0-0.9c-0.3-0.5-0.1-1,0.1-1.5c0.4-0.7,0.3-1.6,0.5-2.4l-0.8-0.6
			c0.2-0.2,0.3-0.3,0.4-0.4c0.6,0.3,1.3,0.5,2,0.8c0.3,0,0.3-0.4,0.5-0.5c0.3-0.1,0.7-0.3,0.9-0.3c0.8,0.2,1.4,0.7,1.9,0.6
			c0.8,0.4,1.6,0.8,2.2,1.2c0.1,0,0.2,0,0.3-0.1c0.6,0.6,1.1,1.1,1.8,1.7v1.1c1,1.3,0.9,1.8,1.2,3.7c0.4,0.6,0.7,1.3,1.2,2
			c-0.1,0.8-0.1,1.5-0.2,2.3c-0.1,0.8,0.2,1.5,0.2,2.2l0.4,0.8l-0.5,2c0,0.3-0.2,0.5-0.3,0.7c-0.2,1.2-0.4,2.3-0.7,3.5
			c-0.2,0.6-0.5,1.2-0.4,1.8c0,0.2,0.1,0.3,0.2,0.5c0.7-0.4,0.8-0.4,1.1-0.8c0.9-1.5,1.9-3,2.6-4.6c0.1-0.1,0.1-0.3,0.2-0.4
			c1-1.1,1.4-2.5,2.1-3.8c0.4-0.7,0.5-1.5,0.8-2.2c0.3-0.9,0.4-1.6,0.5-2.4c0-0.3,0-0.7,0.1-1c0.4-0.8,0.4-1.7,0.5-2.7
			c0.1-0.7,0.2-1.3,0.7-2c0.8-0.4,1.4-1,1.8-1.8c1.1-0.9,1.9-2,3.1-2.4l1.4,0.6c0.1-0.1,0.2-0.1,0.5-0.2c0.6,0.3,1.2,0.5,2.1,0.8
			c1.4,1,2.7,2.6,3.7,4.4C174,100.7,173.8,102,173.7,103.3z M141.4,124.8l-0.1-0.1v0.1H141.4z M145.6,130h0.2c0,0.1-0.1,0.1-0.1,0.2
			C145.7,130.1,145.6,130.1,145.6,130z M149.8,158.3h0.1l-0.1,0.1V158.3z M150.8,159.6c0.1,0,0.1,0,0.3,0.3
			c-0.2-0.1-0.3-0.1-0.4-0.2L150.8,159.6L150.8,159.6z M151.2,156.2v-0.1h0.1C151.2,156.1,151.2,156.2,151.2,156.2z M151.3,156.1
			V156C151.4,156.1,151.3,156.1,151.3,156.1z M152.8,150.5v0.2C152.8,150.8,153,150.8,152.8,150.5z M154.5,141.3c0,0,0-0.1-0.1-0.1
			c0,0.1,0,0.2-0.2,0.6C154.5,141.5,154.5,141.4,154.5,141.3z M155.2,139.7l-0.5,0.3c0.1,0.4,0.1,0.9,0.3,1.5
			C155.4,140.6,155.4,140.6,155.2,139.7z M155,148l-0.1,0.1h0.1V148z M155.2,145.9h-0.1l0.1,0.1V145.9z M156.2,138.3
			c-0.1-0.4,0.2-0.9-0.1-1.3c-0.1,0.7-0.3,1.1-0.2,1.8C156,138.5,156.1,138.4,156.2,138.3z M157.3,132.7l-0.4-0.8l-0.4,0.3
			c0,0.4-0.1,0.8-0.2,1.1c0.1,0.1,0.1,0.1,0.2,0.1l-0.2,0.2v-0.2c-0.1,0-0.1,0-0.2,0.1c0.1,0,0.1,0,0.2,0.1c0.1,0.2,0.2,0.4,0.2,0.5
			c-0.1,0.5-0.2,1-0.3,1.4c0,0,0.1,0.1,0.1,0.2h0.3c0.1-0.5,0.2-1,0.3-1.5C156.9,133.6,157.1,133.1,157.3,132.7z M156.9,131.3h0.2
			l-0.1-0.1C157,131.3,157,131.3,156.9,131.3z M157.2,137.2l-0.1-0.1v0.1H157.2z M157.7,140.3c-0.1,0-0.2,0-0.4-0.2
			c0.1,0.2,0.1,0.4,0.2,0.6c0,0.1,0.1,0.3,0.1,0.6h0.1L157.7,140.3z M157.8,138.8c-0.3,0.1-0.5,0.3-0.4,0.6c0.1,0,0.2,0.1,0.3,0.1
			C157.8,139.3,158.1,139,157.8,138.8z M157.5,142.5l-0.1-0.1v0.1H157.5z M157.7,134.5c-0.3,0.5-0.3,0.5-0.1,0.9
			C157.7,135,157.9,134.7,157.7,134.5z M158,136.9c-0.3,0.4-0.3,0.9-0.1,1.3C158.2,137.8,158.1,137.4,158,136.9z M159.8,127.5
			c0-0.2-0.1-0.4-0.2-0.6c-0.1,0.3-0.2,0.6-0.3,1c-0.3,0.3,0.1,0.7-0.2,1c-0.1,0.2-0.3,0.3-0.4,0.4c0.2,0.6,0.2,1.1-0.1,1.7
			c-0.3,0.1-0.6,0.2-0.8,0.1c-0.3,0.5,0.1,1.1-0.2,1.6c0,0,0.1,0,0.2,0.1c0.1-0.1,0.2-0.2,0.4-0.2c-0.1-0.3,0-0.7-0.1-1
			c0.1,0,0.3,0,0.4,0.2c0,0.7,0,1.3-0.1,2.2c0.3-0.5,0.5-0.7,0.5-0.9c0.1-0.2,0.2-0.5,0.2-0.8C159.4,130.7,159.6,129,159.8,127.5z
			 M158.1,133.8H158v0.1L158.1,133.8z M158,136.1v0.4C158.1,136.3,158.3,136.2,158,136.1z M158.3,130.6l0.1-0.1h-0.1V130.6z
			 M159.4,142.4l-0.1-0.1l-0.1,0.1c0,0,0.1,0,0.1,0.1L159.4,142.4z M159.4,141.8l-0.1-0.1v0.1H159.4z M159.7,126
			c0.1,0.1,0.1,0.1,0.2,0H159.7L159.7,126z M160.8,145.5h-0.2c0.4,0.2-0.7,0.8,0,0.8C160.9,146.1,161,145.8,160.8,145.5z
			 M162.2,141.7h-0.1c0,0.1,0,0.1,0.1,0.1V141.7z M162.4,146.1c0.2-0.4,0.2-0.5,0.2-0.6c0,0,0.1,0.1,0.2,0.1
			C162.7,145.7,162.7,145.8,162.4,146.1z M163.1,147.2c0.2,0.5,0.2,0.8,0.3,1.1c0,0-0.1,0-0.1,0.1
			C162.9,148.2,162.8,147.7,163.1,147.2z M163.3,145.2h0.1l-0.1,0.1V145.2z M163.3,144.6l0.1,0.1h-0.1V144.6z M163.5,143.7l-0.1,0.1
			v-0.1H163.5z M163.7,151.9c0-0.7,0-1.2,0.4-1.8c0.2-0.2,0.2-0.4,0.3-0.9c0.1,0.8,0,1.3-0.3,1.8C164,151.4,164.1,151.8,163.7,151.9
			z M164.3,147.2v-0.1l0.2-0.4C164.4,147,164.3,147.1,164.3,147.2z M164.3,155.6l0.1-0.1v0.1H164.3z M170.1,117.4
			c0,0.2,0,0.3-0.2,0.6C169.7,117.7,169.7,117.5,170.1,117.4z M170.2,116.9c0.2,0.2,0.1,0.4-0.2,0.4
			C170.1,117.2,170.2,117.1,170.2,116.9z"/>
		<path class="st0" d="M223.6,110.1c-0.3,0.7-0.8,1.2-1.3,1.7c-0.7,0.5-1.4,1.1-2.3,1.8c-1,0.3-2.1,0.9-3.3,1.5
			c-1.7,0.8-3.6,1.5-5.3,2.3c-0.5,0.2-0.9,0.5-1.4,0.7l-2,1v0.2c-0.1,1.1-0.6,2.2-1.1,3.1c-0.4,0.7-0.8,1.4-1.1,2.1
			c-0.6,1-1.3,2.2-2,3.2c-1,1.4-2,2.9-2.9,4.3c-0.7,1.3-1.5,2.4-2.4,3.5c-0.5,0.5-1,1-1.8,1.2c-0.5,0.2-0.9,0.5-1.5,0.7
			c-0.2,0.1-0.4,0.1-0.7,0.1c-1.4,0.3-2.7,0.7-4,1.2c-0.6,0.3-1.3,0.4-1.9,0.6c-1.4-0.5-2.9-0.5-4.2-1.5c-0.5,0.4-0.8,0.9-1.2,1.3
			c-0.5,0.3-1,0.2-1.6,0.2l-3.1-0.3c-0.4-0.3-0.8-0.5-1.2-0.9s-0.7-0.7-0.9-1c-0.2-1.2-0.3-2.1-0.2-3.1c0.2-0.6,0.1-1.3,0-2
			c0-0.8,0.1-1.5,0.1-2.3c0.2-1.8,0.4-3.5,0.7-5.2c0.3-1.4,0.4-2.9,0.8-4.3c0.4-1.7,0.6-3.4,0.8-5.1c0.1-0.9,0.1-1.7,0.5-2.4
			c0.1-0.1,0-0.2,0-0.3c0.2-0.9,0.2-1.8,0.6-2.6c0.3-0.7,0.2-1.6,0.6-2.4v-0.3c0-1.3,0.6-2.6,0.9-4c0-0.3,0.2-0.5,0.2-0.9
			c0.4-1.3,0.8-2.6,1.2-3.9c0.5-2,1-4.2,1.8-6.2c0.3-0.5,0.3-1.1,0.5-1.5l2-6.4c0.3-1,0.7-1.8,1.1-2.8c0.6-1.3,1.2-2.4,1.7-3.7
			c0.9-2.2,2.1-4.4,3.2-6.5c0.7-1.1,1.4-2.2,2.2-3.3c0.5-0.7,1.1-1.3,1.6-2.3c0.2-0.4,0.3-0.7,0.6-1.3c0.2-0.1,0.7,0,1-0.1
			c0.5-0.2,1,0.3,1.3,0l1.2,0.5c0.2,0.5,0.6,0.6,1,0.9c0.1,0.2,0.1,0.4,0,0.8l0.6,1.1c0.2,0.4,0.2,0.8,0.4,1.2
			c-0.4,0.8-0.5,1.7-0.6,2.6l-0.3,3.1c0,0.4-0.3,1-0.5,1.4c-0.5,1.8-0.9,3.7-1.7,5.5c-0.1,0.2-0.1,0.5-0.2,0.9
			c0,0.4-0.2,0.8-0.3,1.2c0,0.2,0.1,0.3,0.2,0.6c-0.1,0.2-0.3,0.5-0.3,0.7c-0.1,1.2-0.5,2.3-0.8,3.5c-0.2,1.2-0.6,2.4-1,3.6
			c-0.1,0.2-0.3,0.5-0.3,0.9c0,0.9-0.3,1.7-0.6,2.5c-0.2,0.8-0.5,1.4-0.6,2.2c0,0.2-0.2,0.4-0.2,0.6c-0.3,0.6-0.7,1.3-0.9,2
			c-0.3,0.6-0.6,1.4-0.7,2.1c0,0.2-0.2,0.4-0.2,0.6c-0.3,0.4-0.4,0.8-0.6,1.4l-0.5,1.6c0,0.4-0.2,1-0.5,1.5c0.3-0.1,0.6-0.2,0.7-0.3
			c2-1,4.1-1.4,6.4-1.8c0.3-0.1,0.7,0.1,1.1,0.1l1.9,0.2c0.5,0.2,1.2,0.5,1.8,0.7c1,0.6,2,1.3,2.5,2.4c0.7,1,1.1,1.9,1.7,2.9
			c0.2,0.4,0.5,0.8,0.4,1.3c0,1,0.4,1.9,0.5,2.9c2.3-1.1,4.7-2.2,7-3.1c1.2-0.5,2.3-1.4,3.4-2.1c0.8-0.5,1.6-0.9,2.5-1.5
			c0.4,0.2,0.7,0.3,1.3,0.4L223.6,110.1z M201,109.8c-0.2-0.2-0.3-0.6-0.4-0.8c-1.2,0-2.2,0.3-3.3,0.8c-1.6,0.6-3.1,1.3-4,2.7
			c-0.1,0.2-0.2,0.2-0.4,0.3c-0.9,0.8-1.7,1.5-2.4,2.5c-0.1,0.2-0.5,0.5-0.6,0.6c-0.3,0.9-0.5,1.5-0.8,2.1c-0.5,0.6-0.1,1.4-0.8,1.9
			c-0.1,0.8-0.4,1.5-0.1,2.2c0,0.1-0.1,0.1-0.1,0.2c0,0.3-0.2,0.5-0.2,0.8c0,0.8-0.2,1.5-0.6,2.3c-0.3,0.6-0.3,1.2-0.2,2
			c0.4-0.3,0.6-0.7,1-0.9c1.3-0.9,2.5-1.6,3.8-2.4c1.2-0.5,2.3-1.3,3.6-1.8c0.4-0.2,0.6-0.5,0.8-0.6c0.2-0.4,0.3-0.7,0.4-1
			c1.5-2.4,2.6-4.9,3.5-7.6C200.6,112,200.8,110.9,201,109.8z M191.1,128.4c-1.5,0.7-2.6,1.9-3.7,3.3v0.1c0,0.1,0.1,0.1,0.2,0.2
			c0.9-0.6,1.9-1.2,2.6-2c0-0.2,0.1-0.3,0.2-0.5C190.7,129.2,191.2,128.9,191.1,128.4z M191.3,128.2v0.1
			C191.4,128.3,191.5,128.5,191.3,128.2z"/>
	</g>
</g>
</svg>
