<?xml version="1.0" encoding="utf-8"?>
<!-- Generator: Adobe Illustrator 20.1.0, SVG Export Plug-In . SVG Version: 6.00 Build 0)  -->
<svg version="1.1" id="Layer_1" xmlns="http://www.w3.org/2000/svg" xmlns:xlink="http://www.w3.org/1999/xlink" x="0px" y="0px"
	 viewBox="0 0 120.3 120.3" style="enable-background:new 0 0 120.3 120.3;" xml:space="preserve">
<style type="text/css">
	.st0{fill:#FFFFFF;}
</style>
<g>
	<circle cx="60.2" cy="60.2" r="60.2"/>
	<path class="st0" d="M28.6,68.3c0-0.3,0.1-0.5,0-0.7C28.8,67.8,28.8,68,28.6,68.3z M29.1,61.4c0,0.3-0.1,0.4,0,0.7
		C29,61.8,29,61.8,29.1,61.4z M29.3,67c-0.1-0.4-0.1-0.7-0.2-1l0.1-0.4c0-0.1,0.1-0.1,0.1-0.2h0.1C29.4,66,29.4,66.5,29.3,67z
		 M52,96.8c-0.4,0.3-0.8,0.7-1.2,1c-0.4,0.3-0.8,0.4-1.3,0.4c-0.3,0.1-0.6-0.1-0.9-0.1c-0.1,0-0.1-0.1-0.2-0.2
		c-0.6-0.1-1-0.1-1.5-0.4c-0.7-0.1-1.4-0.4-2-0.7c-0.1-0.1-0.3-0.1-0.4-0.1c0.1-0.1,0.2-0.2,0.2-0.3c0.1,0.1,0.2,0.2,0.4,0.2
		c0.1,0,0.2,0,0.4-0.1c-0.1-0.1-0.2-0.1-0.3-0.2l0.3-0.2l-1.3-1.2c-0.1-0.2-0.3-0.3-0.4-0.5c-0.2-0.7-0.6-1-0.9-1.5
		C42.3,92,41.6,91,41,90c-0.7-1.2-1.3-2.5-1.5-3.9c-0.2-1-0.5-1.9-0.7-2.9c-0.4-1.5-0.6-3.1-0.7-4.6L38,77.8
		c-0.2-0.8-0.3-1.6-0.4-2.4c0-1.2,0.1-2.3-0.1-3.6v-0.1c-0.5,0.7-0.9,1.7-1.1,2.4c-0.1,0.2-0.2,0.4-0.4,0.6
		c-0.1,0.4-0.1,0.6-0.3,0.9c-0.1,0.4-0.4,0.7-0.4,1.2c-0.1,0.4-0.2,0.6-0.4,0.9c-0.6,0.7-0.9,1.7-1.2,2.5c-0.1,0.5-0.4,1-0.9,1.3
		c-0.6-0.7-0.9-1.5-1.7-2c-0.1-0.7-0.8-0.9-1.2-1.6c-0.1-0.8-0.5-1.5-1-2.1c0-0.3,0.1-0.6,0.2-0.9c0,0-0.1-0.2,0-0.4
		c0.3-0.1,0.3,0.1,0.4,0.1c0,0,0.1-0.1,0.1-0.1c-0.1-0.6-0.5-1-0.4-1.6c0.1,0,0.2-0.1,0.4-0.1c-0.1-0.9,0-1.9,0.1-2.9
		c-0.1-0.4-0.2-0.7-0.4-1c-0.1-0.1-0.2-0.1-0.3-0.1c-0.2-0.7-0.2-0.8-0.1-1.2c0.3,0.1,0.2,0.4,0.3,0.6c0.3-0.2,0.4-1.7,0.3-3
		c0.1-0.1,0.1-0.4,0.2-0.5v-0.1l-0.3-0.8l0.1-0.9c0.1-0.6,0-1.3,0-1.9c0-0.1,0-0.1-0.1-0.1c0.1-0.4,0.2-0.7,0.3-1.1l0.1-1.2l0.1-0.6
		c0-0.1,0.2-0.3,0.1-0.6c-0.1-0.1,0.1-0.4,0.1-0.6c0-0.1-0.1-0.1-0.1-0.3c0,0-0.1-0.1,0-0.1c0.4-0.7,0.3-1.6,0.4-2.4
		c0.1-0.5,0.3-1.1,0.4-1.6c0.1-0.6,0.1-1.2,0.4-1.6l0.3-2.3c0-0.1-0.1-0.3-0.1-0.3c0.2-0.5,0.4-0.9,0.5-1.3l0.1-0.9l0.1-1
		c0.1-0.4,0.2-0.6,0.2-0.9c-0.1-0.1,0-0.1,0-0.3c0.1-0.4,0.1-0.6,0.2-0.9c0.1-0.4,0-0.8,0.1-1.1c0-0.1,0-0.4-0.1-0.5
		c0.2-0.7,0.4-1.4,0.6-2.1c0.1-0.7,0.1-1.3,0.4-2c-0.1,0.1-0.2,0.1-0.4,0.1c0.1-0.4,0.2-0.9,0.1-1.3c0.2-0.2,0.3-0.4,0.4-0.7
		c0-0.1-0.1-0.3-0.1-0.3c0.1-0.6,0.2-1.1,0.4-1.6l0.3-0.9c0.2-0.6,0.4-1.2,0.6-2c0.5-1.4,0.9-2.8,1.5-4.2c0.2-0.5,0.4-0.9,0.6-1.4
		c0.1-0.5,0.4-0.9,0.7-1.4l1.2-1.7l0.3-0.4l0.4-0.2c0.4-0.1,0.7-0.1,1.1-0.1c0.7-0.1,1.2-0.3,1.7-0.7c0.1-0.1,0.4-0.2,0.7-0.4
		c0.3,0.1,0.7,0.1,1.1,0.3c0.8,0.7,1.2,1.7,1.2,2.8c0.1,0.1,0.1,0.3,0.2,0.4c0.1,1.2,0.2,2.2,0.4,3.7c-0.1,0.4-0.1,1.3-0.4,2
		c0,0.3,0.1,0.4,0,0.7c-0.1,0.2-0.1,0.5-0.1,0.9l-0.1,0.7L45.5,33c-0.1,0.4-0.2,0.9-0.3,1.2C45,34.6,45,35,44.9,35.4
		c-0.2,0.2-0.2,0.7-0.4,0.9c-0.2,0.5-0.4,1-0.6,1.5c-0.2,0.3-0.3,0.7-0.4,1L42.9,40c-0.4,0.6-0.9,1.1-1.3,1.7
		c-0.1,0.1-0.2,0.2-0.3,0.3c-0.4,0.4-0.8,0.9-1,1.4c0.1,0.4,0.1,0.7-0.1,1.1c-0.1,0.1-0.1,0.4-0.1,0.6c0.1,0.8,0,1.4-0.1,2.2
		c-0.1,1.3-0.2,2.6-0.4,3.8c0,0,0,0.1,0.1,0.2l0.6-0.7c0.8-1.2,1.7-2.2,2.6-3.3l0.5-0.4c1.1-1,2.2-1.9,3.3-2.8
		c0.7-0.5,1.3-0.8,2-0.5c0.2,0.3,0.5,0.5,0.8,0.9l0.5,1c-0.1,0.9-0.4,1.6-0.9,2.3c-0.4,0.6-0.7,1-1.1,1.6s-0.7,1-0.9,1.7
		c-0.2,0.3-0.4,0.7-0.6,0.9c-0.4,0.3-0.7,0.7-0.9,1.1L45.1,53l-0.1,0.1l-0.6,0.7c0,0.1-0.1,0.2-0.2,0.4c-1.1,1.1-2,2.3-2.9,3.5
		l-0.6,0.9l-0.6,0.7c-0.1,0.2-0.1,0.4-0.1,0.7c0,0.4,0.4,0.3,0.7,0.5l0.4,0.8c0.1-0.1,0.1-0.1,0.2-0.1c0.1,0.1,0.1,0.3,0.1,0.4
		L42,62c0.3,0.4,0.2,1,0.3,1.4c0.1,0.4,0.1,0.8,0.1,1.2c0.2,0.4,0.1,0.9,0.1,1.3c0,0.4,0.2,0.8,0.2,1.2c0,0.4,0.1,0.9,0.1,1.3
		l0.1,0.4c-0.1,0.8,0,1.6,0.1,2.2c0,0.4,0,0.7,0,1c0,0.3,0.1,0.7,0.1,1.2c0,0.4-0.1,0.7-0.1,1c0,0.1,0.1,0.3,0,0.4l0.3,0.1
		c0,0.1-0.1,0.2-0.1,0.4v0.1c0.1,0.4,0.4,0.9,0.4,1.4c-0.1,0.4-0.1,0.9-0.1,1.3c0,0.4-0.1,0.8-0.1,1.2s0.1,0.7,0.2,1
		c-0.1,0.1-0.1,0.2-0.1,0.4c0.1-0.1,0.3-0.1,0.5,0c0.1,0.1,0.1,0.1,0.1,0.2c0,0.6,0.1,1.2,0.1,1.7c0.1,0.3,0,0.6,0,0.8
		c0.1,0.2,0.2,0.3,0.4,0.4l-0.1,1.3c0,0.3,0,0.4,0.1,0.7c-0.1,0-0.1,0-0.1,0.1l0.1-0.1c0.1,0,0.1,0.1,0.1,0.2c0.1,0.3,0,0.5,0,0.8
		c0.1-0.1,0.3-0.1,0.5,0c0.1,0.2-0.1,0.4-0.1,0.5c0.4,0.5,0.1,1.2,0.5,1.7c0.1,0,0.2,0.1,0.3,0.1c0.2-0.2,0.1-0.5,0.2-0.7
		c0.1,0.1,0.1,0.2,0.1,0.3l-0.1,0.9c0.1,0.4,0.1,0.9,0.3,1.4h0.2c0.1,0.1,0.1,0.1,0.2,0.3c0.1,0.2,0.2,0.4,0.3,0.7L46.9,92V92
		c0.1,0.1,0.2,0.1,0.3,0.1V92c0.1,0,0.2,0,0.3,0.1c0.4,0.4,0.7,0.7,1.1,1c0.6,0.4,1.2,0.8,1.9,1.1c0,0.1,0,0.1-0.1,0.2l-0.6-0.1
		c0.2,0.3,0.3,0.3,0.6,0.1c0.4,0.1,0.7-0.1,1-0.1c0,0.1,0.1,0.2,0,0.4c-0.2,0-0.4,0.1-0.7,0c0,0.4,0.4,0.1,0.4,0.5
		c0,0.1-0.1,0.4-0.2,0.5l0.2,0.3c0.2,0,0.4,0.1,0.7,0.1C52,96.4,52,96.6,52,96.8z M29.3,63.6L29.3,63.6L29.3,63.6L29.3,63.6z
		 M29.5,60.2l0.2,0.3c0,0.3,0,0.5-0.3,0.6C29.3,60.7,29.3,60.7,29.5,60.2z M29.5,71.7L29.4,72C29.3,71.8,29.3,71.8,29.5,71.7z
		 M29.7,60.5L29.7,60.5C29.7,60.5,29.7,60.5,29.7,60.5z M39.3,56L39.3,56C39.2,56,39.3,56,39.3,56L39.3,56z M40,55.5l-0.2-0.3
		c-0.4,0.1-0.4,0.5-0.4,0.7l0.3,0.1L40,55.5z M41.3,53.2c0.5-0.8,0.9-1.7,1.4-2.5l0.1-0.4c-0.1,0-0.1,0-0.1,0.1
		C42,51.1,41.5,52,41,52.8c-0.4,0.6-0.6,1.2-1,1.7c-0.1,0.1-0.3,0.1-0.1,0.4H40C40.4,54.4,40.9,53.8,41.3,53.2z M40.4,40.2
		c0,0.1,0.1,0.3,0.1,0.4l0.5-0.7c0.6-0.8,1-1.8,1.4-2.8c0.3-0.9,0.7-1.8,0.8-2.9c0.4-0.9,0.3-1.9,0.7-2.8c0.2-1.2,0.3-2.3,0.2-3.5
		c0-1.2-0.1-2.5-0.4-3.7c-0.1-0.7-0.1-1.2-0.5-1.8c0-0.1-0.1-0.1-0.1-0.3c-0.2-0.1-0.4-0.1-0.7,0.3c-0.1,0.2-0.2,0.7-0.4,1.1
		c-0.1,0.1-0.2,0.4-0.1,0.6c0.1,0.7-0.1,1.3-0.1,2c-0.1,0.4-0.1,0.8-0.3,1.2c0,0.5,0,1.2,0.1,1.7c0.1,0.7,0,1.3,0,2l-0.1,1.2
		c-0.1,0.4-0.1,0.8-0.2,1.2c-0.1,0.4,0,0.8-0.1,1.2c-0.1,0.4-0.2,0.7-0.1,1.2c0.1,0.3,0,0.6-0.1,0.9c-0.1,0.4,0,0.7-0.1,0.9
		C40.4,38.5,40.6,39.4,40.4,40.2z M41.2,91.2L41.2,91.2L41.2,91.2L41.2,91.2z M41.5,92C41.5,92,41.5,92,41.5,92
		C41.5,92,41.5,92,41.5,92z M41.6,92.2L41.6,92.2L41.6,92.2C41.6,92.1,41.6,92.2,41.6,92.2z M41.6,92.2L41.6,92.2
		C41.6,92.3,41.6,92.3,41.6,92.2z M42.8,74.8c-0.1-0.9-0.1-1.9-0.4-2.9c-0.1,0.7-0.2,1.2-0.2,1.7c0.1,0.7,0,1.4,0,2
		c0,0.1,0.1,0.1,0.1,0.2C42.5,75.4,42.8,75,42.8,74.8z M42.4,75.8l-0.1,0.4C42.5,76,42.5,75.8,42.4,75.8z M43.9,82.3
		c-0.1-0.4-0.3-0.9-0.2-1.4h-0.1l0.1-0.4c-0.2-0.8-0.2-1.7-0.4-2.5c0-0.4-0.1-0.7-0.2-1.1c-0.1-0.2,0-0.4,0-0.7c0,0-0.1,0-0.1-0.1
		v-0.4c0,0.1-0.2,0.2,0,0.4c0,0.1-0.1,0.1-0.1,0.2c-0.1,0.4,0,0.8,0,1.2l-0.1,0.1c0,0.1,0,0.4,0.1,0.5l0.2,0.2
		c0,0.1-0.1,0.1-0.1,0.1c0.3,0.4,0.4,0.7,0.1,1.2l0.2,0.2c0,0.3-0.1,0.4-0.1,0.6c0.1,0.1,0.2,0.3,0.3,0.4c0,0.1-0.1,0.1-0.1,0.1
		c0,0.1,0.1,0.1,0.1,0.1l0.1,0.7c-0.1,0-0.1,0.1-0.1,0.1s0.1,0.1,0.1,0.1l-0.1,0.6c0.1,0.2,0.3,0.4,0.4,0.5
		C43.9,82.7,43.8,82.5,43.9,82.3z M42.8,50.3C42.8,50.3,42.9,50.3,42.8,50.3L42.8,50.3z M43.5,94.9c-0.1,0-0.1,0-0.2-0.2
		C43.4,94.7,43.5,94.7,43.5,94.9z M43.6,80.8c-0.1,0.1-0.1,0.1-0.3,0.1v-0.1H43.6z M43.4,81.8v-0.1C43.5,81.8,43.5,81.8,43.4,81.8z
		 M43.6,94.9L43.6,94.9C43.5,95.1,43.5,95,43.6,94.9z M43.8,96L43.8,96c0,0.1,0,0.1-0.1,0.1c0,0,0-0.1-0.1-0.1
		C43.7,96.1,43.8,96.1,43.8,96z M43.9,84.7c0.1,0,0.1-0.1,0.2-0.1l-0.1-1.1C43.9,83.9,43.8,84.4,43.9,84.7z M44.3,85.6
		c0-0.1,0.1-0.4-0.1-0.7c0,0-0.1,0.1-0.2,0.1C44,85.3,44.1,85.5,44.3,85.6L44.2,86c0,0.1,0.1,0.3,0.1,0.3
		C44.4,86,44.5,85.8,44.3,85.6z M44.7,96.4h-0.6l0.1-0.4C44.5,96,44.5,96,44.7,96.4z M44.5,86.4C44.5,86.3,44.4,86.3,44.5,86.4
		C44.4,86.4,44.4,86.5,44.5,86.4z M44.6,87.1c0-0.1,0-0.3,0-0.4C44.5,87,44.4,87,44.6,87.1z M44.8,87.3h-0.1
		C44.7,87.3,44.6,87.4,44.8,87.3z M45,81.8c0.1,0.4,0.1,0.7-0.1,1.1C44.9,82.5,44.9,82.2,45,81.8z M46,86.9V87c-0.1,0-0.1,0-0.2-0.1
		c-0.1-0.4-0.4-0.7-0.1-1.3L46,86.9z M46.1,87.3c0.1,0.3,0,0.5,0,0.9c-0.1-0.1-0.1-0.1-0.1-0.1l0.1-0.9C46,87.3,46.2,87.3,46.1,87.3
		z M46.1,87.1L46.1,87.1L46.1,87.1C46,87.1,46,87.1,46.1,87.1z M46.2,88.3c-0.1,0-0.1-0.1-0.1-0.2C46.2,88.2,46.2,88.3,46.2,88.3z
		 M46.3,88.4L46.3,88.4L46.3,88.4L46.3,88.4L46.3,88.4z M47.1,91.1H47C47,91,47,91,47,91C47,91,47.1,91,47.1,91.1z M47,91.2v-0.1
		c0.1,0.1,0.1,0.1,0.1,0.1C47.2,91.2,47.1,91.3,47,91.2z M48,93h-0.1c0-0.1,0-0.3-0.1-0.3c0-0.3-0.2-0.4-0.4-0.4
		c0,0.4,0,0.4,0.4,0.4c0,0.1,0.1,0.3,0.1,0.3S47.9,93.1,48,93C48,93.1,48,93.1,48,93z M48.3,98.5l-0.4-0.1
		C48,98.3,48,98.3,48.3,98.5z M48.3,93.6C48.3,93.6,48.3,93.5,48.3,93.6C48.3,93.5,48.3,93.5,48.3,93.6z M48.9,93.7l-0.6-0.1
		C48.5,93.9,48.5,93.9,48.9,93.7z M49.9,94.2C49.9,94.3,49.9,94.3,49.9,94.2c-0.1,0.1,0,0.1,0,0.1V94.2z M50.9,95.5
		C50.9,95.5,50.9,95.4,50.9,95.5L50.9,95.5C50.9,95.5,50.9,95.6,50.9,95.5L50.9,95.5z"/>
	<path class="st0" d="M94.2,59c-0.2,0.6-0.4,1-0.8,1.4c-0.4,0.4-0.8,0.9-1.4,1.5c-0.7,0.3-1.3,0.8-2,1.4c-1.1,0.8-2.2,1.4-3.3,2.2
		c-0.3,0.2-0.6,0.4-0.8,0.7l-1.2,0.9v0.2c0,0.8-0.3,1.7-0.5,2.4c-0.3,0.6-0.4,1.1-0.6,1.7c-0.3,0.8-0.8,1.8-1.1,2.6
		c-0.6,1.2-1.1,2.4-1.6,3.6c-0.3,1-0.8,1.9-1.3,2.9c-0.3,0.4-0.6,0.8-1.1,1.1c-0.3,0.2-0.6,0.4-0.9,0.7c-0.2,0.1-0.3,0.1-0.4,0.2
		c-0.8,0.3-1.7,0.8-2.5,1.3c-0.3,0.3-0.8,0.4-1.2,0.6c-0.9-0.3-1.9-0.2-2.8-0.8c-0.3,0.3-0.4,0.8-0.8,1.1c-0.3,0.3-0.7,0.3-1,0.3h-2
		c-0.3-0.2-0.6-0.3-0.8-0.6s-0.5-0.5-0.7-0.7c-0.3-0.9-0.3-1.6-0.3-2.4c0.1-0.5,0-1-0.2-1.5c-0.1-0.6-0.1-1.2-0.1-1.8
		c0-1.4,0-2.7,0.1-4.1c0.1-1.1,0.1-2.3,0.3-3.5c0.2-1.4,0.2-2.6,0.2-4.1c0-0.7-0.1-1.3,0.2-1.9c0.1-0.1,0-0.2,0-0.3
		c0.1-0.7,0-1.4,0.3-2c0.2-0.6,0-1.3,0.3-1.9v-0.3c-0.1-1,0.3-2,0.3-3.2c0-0.3,0.1-0.4,0.1-0.7c0.2-1,0.3-2,0.5-3.1
		c0.3-1.6,0.3-3.4,0.8-5c0.2-0.4,0.2-0.8,0.3-1.2l0.8-5.2c0.2-0.8,0.3-1.4,0.5-2.2c0.3-1,0.7-1.9,0.8-3c0.4-1.8,1.1-3.6,1.7-5.3
		c0.3-0.9,0.8-1.8,1.2-2.7c0.3-0.6,0.7-1.1,0.8-1.9c0.1-0.3,0.2-0.6,0.3-1c0.2-0.1,0.4-0.1,0.7-0.2c0.3-0.2,0.7,0.2,0.8-0.1l0.8,0.3
		c0.2,0.3,0.4,0.4,0.8,0.6c0.1,0.2,0.1,0.3,0.1,0.6l0.4,0.8c0.2,0.3,0.3,0.6,0.3,0.8c-0.3,0.7-0.3,1.4-0.3,2v2.4
		c0,0.3-0.2,0.8-0.3,1.1c-0.3,1.4-0.3,3-0.8,4.4c-0.1,0.2,0,0.4-0.1,0.7c0,0.3-0.1,0.6-0.2,0.9c0,0.2,0.1,0.3,0.2,0.4
		c-0.1,0.2-0.2,0.4-0.2,0.6c0,0.9-0.2,1.8-0.3,2.7c-0.1,0.9-0.3,1.9-0.4,2.9c-0.1,0.2-0.2,0.4-0.2,0.7c0.1,0.7-0.1,1.4-0.3,1.9
		c-0.1,0.6-0.3,1.1-0.3,1.7c0,0.2-0.1,0.3-0.1,0.5c-0.2,0.5-0.3,1-0.4,1.6c-0.2,0.5-0.3,1.1-0.3,1.7c0,0.2-0.1,0.3-0.1,0.5
		c-0.2,0.3-0.3,0.7-0.3,1.1l-0.3,1.3c0,0.3-0.1,0.8-0.3,1.2c0.3-0.1,0.3-0.2,0.4-0.3c1.2-0.9,2.6-1.4,4.1-1.9c0.3-0.1,0.4,0,0.8,0
		h1.2c0.3,0.1,0.8,0.3,1.2,0.4c0.8,0.3,1.4,0.8,1.8,1.6c0.5,0.7,0.8,1.4,1.3,2.1c0.2,0.3,0.3,0.6,0.3,0.9c0.1,0.8,0.3,1.4,0.5,2.2
		c1.4-1,2.9-2,4.3-3c0.8-0.5,1.4-1.3,2.1-1.9c0.5-0.4,1-0.8,1.5-1.4c0.3,0.1,0.5,0.2,0.8,0.2L94.2,59z M79.4,60.6
		c-0.2-0.2-0.3-0.4-0.3-0.6c-0.8,0.1-1.4,0.4-2.1,0.8c-1,0.6-1.9,1.3-2.4,2.4c-0.1,0.2-0.2,0.2-0.3,0.3c-0.5,0.7-1,1.3-1.4,2.1
		c-0.1,0.2-0.3,0.4-0.3,0.5c-0.2,0.7-0.3,1.2-0.3,1.7c-0.3,0.5,0,1.1-0.3,1.5c0,0.6-0.2,1.2,0.1,1.7c0,0.1-0.1,0.1-0.1,0.2
		c0,0.3-0.1,0.4-0.1,0.6c0.1,0.6,0,1.2-0.3,1.8c-0.2,0.5-0.2,0.9,0,1.5c0.3-0.3,0.3-0.6,0.6-0.8c0.8-0.8,1.5-1.4,2.3-2.1
		c0.8-0.5,1.4-1.2,2.2-1.7c0.3-0.2,0.3-0.4,0.5-0.5c0.1-0.3,0.2-0.6,0.3-0.8c0.8-1.9,1.4-4.1,1.7-6.2C79.3,62.3,79.4,61.4,79.4,60.6
		z M74.4,75.9c-0.9,0.7-1.6,1.7-2.2,2.8v0.1c0,0.1,0.1,0.1,0.2,0.2c0.6-0.5,1.2-1.1,1.6-1.8c0-0.2,0.1-0.3,0.1-0.4
		C74.1,76.4,74.5,76.2,74.4,75.9z M74.5,75.7L74.5,75.7C74.5,75.8,74.5,75.9,74.5,75.7z"/>
</g>
</svg>
